<svg width="184" height="184" viewBox="0 0 184 184" fill="none" xmlns="http://www.w3.org/2000/svg">
<circle cx="92" cy="92" r="92" fill="#FF0000"/>
<path fill-rule="evenodd" clip-rule="evenodd" d="M92 184C119.075 184 143.417 172.305 160.252 153.691L109.145 118.918L56.8051 177.028C67.6468 181.521 79.5338 184 92 184ZM115.471 111.894L166.147 146.474C177.369 131.224 184 112.386 184 92C184 41.1898 142.81 0 92 0C41.1898 0 0 41.1898 0 92C0 114.205 7.86693 134.573 20.9657 150.469L21.1601 149.96L58.1311 111.894H115.47L115.47 111.894L115.471 111.894ZM25.4926 58.2335L33.343 82.9108H33.6443L41.5106 58.2335H49.1231L37.9264 90.7136H29.0768L17.8642 58.2335H25.4926ZM53.0325 90.7136V58.2335H74.9185V63.8953H59.8996V71.6347H73.7925V77.2966H59.8996V85.0518H74.982V90.7136H53.0325ZM107.545 90.7136V58.2335H100.71V78.6605H100.424L86.4047 58.2335H80.3781V90.7136H87.2453V70.2708H87.4832L101.614 90.7136H107.545ZM133.281 58.2335H140.148V79.3266C140.148 81.6949 139.583 83.7672 138.451 85.5435C137.331 87.3197 135.761 88.7048 133.741 89.6986C131.722 90.6819 129.369 91.1736 126.684 91.1736C123.988 91.1736 121.63 90.6819 119.61 89.6986C117.591 88.7048 116.021 87.3197 114.9 85.5435C113.779 83.7672 113.219 81.6949 113.219 79.3266V58.2335H120.086V78.7398C120.086 79.9768 120.356 81.0764 120.895 82.0385C121.445 83.0007 122.217 83.7566 123.211 84.3064C124.204 84.8562 125.362 85.1311 126.684 85.1311C128.016 85.1311 129.174 84.8562 130.157 84.3064C131.151 83.7566 131.917 83.0007 132.457 82.0385C133.006 81.0764 133.281 79.9768 133.281 78.7398V58.2335ZM145.798 58.2335V90.7136H167.748V85.0518H152.665V77.2966H166.558V71.6347H152.665V63.8953H167.684V58.2335H145.798Z" fill="#FFE03C"/>
</svg>
