<svg width="24" height="24" viewBox="0 0 24 24" fill="none" xmlns="http://www.w3.org/2000/svg">
<circle cx="12" cy="12" r="12" fill="#FF0000"/>
<path fill-rule="evenodd" clip-rule="evenodd" d="M12 24C15.5314 24 18.7066 22.4745 20.9025 20.0466L14.2362 15.511L7.40932 23.0906C8.82347 23.6766 10.374 24 12 24ZM15.0613 14.5949L21.6713 19.1053C23.1351 17.1162 24 14.6591 24 12C24 5.37258 18.6274 0 12 0C5.37258 0 0 5.37258 0 12C0 14.8963 1.02611 17.553 2.73463 19.6263L2.75995 19.56L7.58227 14.5949H15.0613L15.0613 14.5949L15.0613 14.5949ZM3.32509 7.59567L4.34905 10.8145H4.38836L5.4144 7.59567H6.40733L4.94689 11.8322H3.79259L2.33008 7.59567H3.32509ZM6.91725 11.8322V7.59567H9.77195V8.33417H7.81296V9.34366H9.62508V10.0822H7.81296V11.0937H9.78022V11.8322H6.91725ZM14.0276 11.8322V7.59567H13.136V10.2601H13.0988L11.2702 7.59567H10.4841V11.8322H11.3798V9.16576H11.4108L13.254 11.8322H14.0276ZM17.3845 7.59567H18.2802V10.3469C18.2802 10.6559 18.2064 10.9262 18.0589 11.1578C17.9127 11.3895 17.7079 11.5702 17.4445 11.6998C17.1811 11.8281 16.8742 11.8922 16.5239 11.8922C16.1723 11.8922 15.8647 11.8281 15.6013 11.6998C15.3379 11.5702 15.1331 11.3895 14.9869 11.1578C14.8408 10.9262 14.7677 10.6559 14.7677 10.3469V7.59567H15.6634V10.2704C15.6634 10.4318 15.6986 10.5752 15.7689 10.7007C15.8406 10.8262 15.9413 10.9248 16.0709 10.9965C16.2005 11.0682 16.3516 11.1041 16.5239 11.1041C16.6977 11.1041 16.8487 11.0682 16.977 10.9965C17.1066 10.9248 17.2066 10.8262 17.2769 10.7007C17.3486 10.5752 17.3845 10.4318 17.3845 10.2704V7.59567ZM19.0171 7.59567V11.8322H21.8801V11.0937H19.9129V10.0822H21.725V9.34366H19.9129V8.33417H21.8718V7.59567H19.0171Z" fill="#FFE03C"/>
</svg>
